<mxfile host="app.diagrams.net" modified="2024-01-11T08:05:08.630Z" agent="Mozilla/5.0 (Windows NT 10.0; Win64; x64) AppleWebKit/537.36 (KHTML, like Gecko) Chrome/120.0.0.0 Safari/537.36 Edg/120.0.0.0" etag="TJbtQtqpKqlpXIab-qQL" version="22.1.18" type="github">
  <diagram id="prtHgNgQTEPvFCAcTncT" name="Page-1">
    <mxGraphModel dx="1407" dy="720" grid="1" gridSize="10" guides="1" tooltips="1" connect="1" arrows="1" fold="1" page="1" pageScale="1" pageWidth="827" pageHeight="1169" math="0" shadow="0">
      <root>
        <mxCell id="0" />
        <mxCell id="1" parent="0" />
        <mxCell id="jN1RGs0I6YGCpUYQ1R-3-1" value="登录" style="swimlane;childLayout=stackLayout;resizeParent=1;resizeParentMax=0;startSize=20;html=1;" parent="1" vertex="1">
          <mxGeometry x="170" y="70" width="550" height="670" as="geometry" />
        </mxCell>
        <mxCell id="jN1RGs0I6YGCpUYQ1R-3-2" value="用户" style="swimlane;startSize=20;html=1;" parent="jN1RGs0I6YGCpUYQ1R-3-1" vertex="1">
          <mxGeometry y="20" width="270" height="650" as="geometry" />
        </mxCell>
        <mxCell id="jN1RGs0I6YGCpUYQ1R-3-9" style="edgeStyle=orthogonalEdgeStyle;rounded=0;orthogonalLoop=1;jettySize=auto;html=1;" parent="jN1RGs0I6YGCpUYQ1R-3-2" source="jN1RGs0I6YGCpUYQ1R-3-6" target="jN1RGs0I6YGCpUYQ1R-3-8" edge="1">
          <mxGeometry relative="1" as="geometry" />
        </mxCell>
        <mxCell id="jN1RGs0I6YGCpUYQ1R-3-6" value="" style="ellipse;html=1;shape=startState;fillColor=#000000;strokeColor=#ff0000;" parent="jN1RGs0I6YGCpUYQ1R-3-2" vertex="1">
          <mxGeometry x="120" y="30" width="30" height="30" as="geometry" />
        </mxCell>
        <mxCell id="jN1RGs0I6YGCpUYQ1R-3-8" value="点击登录按钮" style="rounded=1;whiteSpace=wrap;html=1;shadow=0;comic=0;labelBackgroundColor=none;strokeWidth=1;fontFamily=Verdana;fontSize=12;align=center;arcSize=50;" parent="jN1RGs0I6YGCpUYQ1R-3-2" vertex="1">
          <mxGeometry x="85" y="140" width="100" height="30" as="geometry" />
        </mxCell>
        <mxCell id="jN1RGs0I6YGCpUYQ1R-3-10" value="输入手机号和密码" style="rounded=1;whiteSpace=wrap;html=1;shadow=0;comic=0;labelBackgroundColor=none;strokeWidth=1;fontFamily=Verdana;fontSize=12;align=center;arcSize=50;" parent="jN1RGs0I6YGCpUYQ1R-3-2" vertex="1">
          <mxGeometry x="85" y="80" width="100" height="30" as="geometry" />
        </mxCell>
        <mxCell id="jN1RGs0I6YGCpUYQ1R-3-3" value="账号管理子系统" style="swimlane;startSize=20;html=1;" parent="jN1RGs0I6YGCpUYQ1R-3-1" vertex="1">
          <mxGeometry x="270" y="20" width="280" height="650" as="geometry" />
        </mxCell>
        <mxCell id="jN1RGs0I6YGCpUYQ1R-3-26" style="edgeStyle=orthogonalEdgeStyle;rounded=0;orthogonalLoop=1;jettySize=auto;html=1;entryX=0.5;entryY=0;entryDx=0;entryDy=0;" parent="jN1RGs0I6YGCpUYQ1R-3-3" source="jN1RGs0I6YGCpUYQ1R-3-11" target="jN1RGs0I6YGCpUYQ1R-3-17" edge="1">
          <mxGeometry relative="1" as="geometry" />
        </mxCell>
        <mxCell id="jN1RGs0I6YGCpUYQ1R-3-11" value="&lt;font style=&quot;font-size: 11px;&quot;&gt;验证登录信息&lt;/font&gt;" style="rhombus;whiteSpace=wrap;html=1;" parent="jN1RGs0I6YGCpUYQ1R-3-3" vertex="1">
          <mxGeometry x="70" y="127.5" width="80" height="55" as="geometry" />
        </mxCell>
        <mxCell id="dSivKjmu0CL3qmbVZoJc-2" style="edgeStyle=orthogonalEdgeStyle;rounded=0;orthogonalLoop=1;jettySize=auto;html=1;exitX=0.5;exitY=1;exitDx=0;exitDy=0;" edge="1" parent="jN1RGs0I6YGCpUYQ1R-3-3" source="jN1RGs0I6YGCpUYQ1R-3-13" target="dSivKjmu0CL3qmbVZoJc-1">
          <mxGeometry relative="1" as="geometry" />
        </mxCell>
        <mxCell id="jN1RGs0I6YGCpUYQ1R-3-13" value="存储登录时间" style="rounded=1;whiteSpace=wrap;html=1;shadow=0;comic=0;labelBackgroundColor=none;strokeWidth=1;fontFamily=Verdana;fontSize=12;align=center;arcSize=50;" parent="jN1RGs0I6YGCpUYQ1R-3-3" vertex="1">
          <mxGeometry x="170" y="182.5" width="100" height="30" as="geometry" />
        </mxCell>
        <mxCell id="dSivKjmu0CL3qmbVZoJc-5" style="edgeStyle=orthogonalEdgeStyle;rounded=0;orthogonalLoop=1;jettySize=auto;html=1;exitX=0;exitY=1;exitDx=0;exitDy=0;" edge="1" parent="jN1RGs0I6YGCpUYQ1R-3-3" source="jN1RGs0I6YGCpUYQ1R-3-16" target="jN1RGs0I6YGCpUYQ1R-3-13">
          <mxGeometry relative="1" as="geometry">
            <Array as="points">
              <mxPoint x="220" y="160" />
            </Array>
          </mxGeometry>
        </mxCell>
        <mxCell id="jN1RGs0I6YGCpUYQ1R-3-16" value="登录信息验证成功" style="text;html=1;strokeColor=none;fillColor=none;align=center;verticalAlign=middle;whiteSpace=wrap;rounded=0;" parent="jN1RGs0I6YGCpUYQ1R-3-3" vertex="1">
          <mxGeometry x="150" y="130" width="110" height="30" as="geometry" />
        </mxCell>
        <mxCell id="jN1RGs0I6YGCpUYQ1R-3-27" style="edgeStyle=orthogonalEdgeStyle;rounded=0;orthogonalLoop=1;jettySize=auto;html=1;" parent="jN1RGs0I6YGCpUYQ1R-3-3" source="jN1RGs0I6YGCpUYQ1R-3-17" target="jN1RGs0I6YGCpUYQ1R-3-18" edge="1">
          <mxGeometry relative="1" as="geometry" />
        </mxCell>
        <mxCell id="jN1RGs0I6YGCpUYQ1R-3-29" style="edgeStyle=orthogonalEdgeStyle;rounded=0;orthogonalLoop=1;jettySize=auto;html=1;" parent="jN1RGs0I6YGCpUYQ1R-3-3" source="jN1RGs0I6YGCpUYQ1R-3-17" target="jN1RGs0I6YGCpUYQ1R-3-22" edge="1">
          <mxGeometry relative="1" as="geometry" />
        </mxCell>
        <mxCell id="jN1RGs0I6YGCpUYQ1R-3-17" value="&lt;font style=&quot;font-size: 11px;&quot;&gt;输入次数剩余&lt;/font&gt;" style="rhombus;whiteSpace=wrap;html=1;" parent="jN1RGs0I6YGCpUYQ1R-3-3" vertex="1">
          <mxGeometry x="70" y="350" width="80" height="50" as="geometry" />
        </mxCell>
        <mxCell id="jN1RGs0I6YGCpUYQ1R-3-18" value="提示重新输入" style="rounded=1;whiteSpace=wrap;html=1;shadow=0;comic=0;labelBackgroundColor=none;strokeWidth=1;fontFamily=Verdana;fontSize=12;align=center;arcSize=50;" parent="jN1RGs0I6YGCpUYQ1R-3-3" vertex="1">
          <mxGeometry x="60" y="440" width="100" height="30" as="geometry" />
        </mxCell>
        <mxCell id="jN1RGs0I6YGCpUYQ1R-3-20" value="登录信息验证失败" style="text;html=1;strokeColor=none;fillColor=none;align=center;verticalAlign=middle;whiteSpace=wrap;rounded=0;" parent="jN1RGs0I6YGCpUYQ1R-3-3" vertex="1">
          <mxGeometry x="50" y="190" width="60" height="30" as="geometry" />
        </mxCell>
        <mxCell id="jN1RGs0I6YGCpUYQ1R-3-62" style="edgeStyle=orthogonalEdgeStyle;rounded=0;orthogonalLoop=1;jettySize=auto;html=1;entryX=0.5;entryY=0;entryDx=0;entryDy=0;" parent="jN1RGs0I6YGCpUYQ1R-3-3" source="jN1RGs0I6YGCpUYQ1R-3-22" target="jN1RGs0I6YGCpUYQ1R-3-61" edge="1">
          <mxGeometry relative="1" as="geometry" />
        </mxCell>
        <mxCell id="jN1RGs0I6YGCpUYQ1R-3-22" value="提示无剩余次数" style="rounded=1;whiteSpace=wrap;html=1;shadow=0;comic=0;labelBackgroundColor=none;strokeWidth=1;fontFamily=Verdana;fontSize=12;align=center;arcSize=50;" parent="jN1RGs0I6YGCpUYQ1R-3-3" vertex="1">
          <mxGeometry x="170" y="440" width="100" height="30" as="geometry" />
        </mxCell>
        <mxCell id="jN1RGs0I6YGCpUYQ1R-3-30" value="输入次数未达上限" style="text;html=1;strokeColor=none;fillColor=none;align=center;verticalAlign=middle;whiteSpace=wrap;rounded=0;" parent="jN1RGs0I6YGCpUYQ1R-3-3" vertex="1">
          <mxGeometry x="55" y="403" width="110" height="30" as="geometry" />
        </mxCell>
        <mxCell id="jN1RGs0I6YGCpUYQ1R-3-31" value="输入次数达到上限" style="text;html=1;strokeColor=none;fillColor=none;align=center;verticalAlign=middle;whiteSpace=wrap;rounded=0;" parent="jN1RGs0I6YGCpUYQ1R-3-3" vertex="1">
          <mxGeometry x="160" y="403" width="120" height="30" as="geometry" />
        </mxCell>
        <mxCell id="jN1RGs0I6YGCpUYQ1R-3-34" value="" style="ellipse;html=1;shape=endState;fillColor=#000000;strokeColor=#ff0000;" parent="jN1RGs0I6YGCpUYQ1R-3-3" vertex="1">
          <mxGeometry x="205" y="300" width="30" height="30" as="geometry" />
        </mxCell>
        <mxCell id="jN1RGs0I6YGCpUYQ1R-3-64" style="edgeStyle=orthogonalEdgeStyle;rounded=0;orthogonalLoop=1;jettySize=auto;html=1;entryX=0.5;entryY=0;entryDx=0;entryDy=0;" parent="jN1RGs0I6YGCpUYQ1R-3-3" source="jN1RGs0I6YGCpUYQ1R-3-61" target="jN1RGs0I6YGCpUYQ1R-3-63" edge="1">
          <mxGeometry relative="1" as="geometry" />
        </mxCell>
        <mxCell id="jN1RGs0I6YGCpUYQ1R-3-61" value="&lt;font style=&quot;font-size: 11px;&quot;&gt;跳转到密码找回&lt;br&gt;界面&lt;/font&gt;" style="rounded=1;whiteSpace=wrap;html=1;shadow=0;comic=0;labelBackgroundColor=none;strokeWidth=1;fontFamily=Verdana;fontSize=12;align=center;arcSize=50;" parent="jN1RGs0I6YGCpUYQ1R-3-3" vertex="1">
          <mxGeometry x="170" y="520" width="100" height="30" as="geometry" />
        </mxCell>
        <mxCell id="jN1RGs0I6YGCpUYQ1R-3-63" value="" style="ellipse;html=1;shape=endState;fillColor=#000000;strokeColor=#ff0000;" parent="jN1RGs0I6YGCpUYQ1R-3-3" vertex="1">
          <mxGeometry x="205" y="590" width="30" height="30" as="geometry" />
        </mxCell>
        <mxCell id="dSivKjmu0CL3qmbVZoJc-4" style="edgeStyle=orthogonalEdgeStyle;rounded=0;orthogonalLoop=1;jettySize=auto;html=1;exitX=0.5;exitY=1;exitDx=0;exitDy=0;entryX=0.5;entryY=0;entryDx=0;entryDy=0;" edge="1" parent="jN1RGs0I6YGCpUYQ1R-3-3" source="dSivKjmu0CL3qmbVZoJc-1" target="jN1RGs0I6YGCpUYQ1R-3-34">
          <mxGeometry relative="1" as="geometry" />
        </mxCell>
        <mxCell id="dSivKjmu0CL3qmbVZoJc-1" value="成功登录提示" style="rounded=1;whiteSpace=wrap;html=1;shadow=0;comic=0;labelBackgroundColor=none;strokeWidth=1;fontFamily=Verdana;fontSize=12;align=center;arcSize=50;" vertex="1" parent="jN1RGs0I6YGCpUYQ1R-3-3">
          <mxGeometry x="170" y="240" width="100" height="30" as="geometry" />
        </mxCell>
        <mxCell id="jN1RGs0I6YGCpUYQ1R-3-12" style="edgeStyle=orthogonalEdgeStyle;rounded=0;orthogonalLoop=1;jettySize=auto;html=1;entryX=0;entryY=0.5;entryDx=0;entryDy=0;" parent="jN1RGs0I6YGCpUYQ1R-3-1" source="jN1RGs0I6YGCpUYQ1R-3-8" target="jN1RGs0I6YGCpUYQ1R-3-11" edge="1">
          <mxGeometry relative="1" as="geometry" />
        </mxCell>
        <mxCell id="jN1RGs0I6YGCpUYQ1R-3-28" style="edgeStyle=orthogonalEdgeStyle;rounded=0;orthogonalLoop=1;jettySize=auto;html=1;entryX=0;entryY=0.75;entryDx=0;entryDy=0;" parent="jN1RGs0I6YGCpUYQ1R-3-1" source="jN1RGs0I6YGCpUYQ1R-3-18" target="jN1RGs0I6YGCpUYQ1R-3-10" edge="1">
          <mxGeometry relative="1" as="geometry" />
        </mxCell>
      </root>
    </mxGraphModel>
  </diagram>
</mxfile>
